<svg version="1.0" xmlns="http://www.w3.org/2000/svg"
 width="80.000000pt" height="80.000000pt" viewBox="0 0 1080.000000 1080.000000"
 preserveAspectRatio="xMidYMid meet">
<metadata>
Created by potrace 1.15, written by Peter Selinger 2001-2017
</metadata>
<g transform="translate(0.000000,1080.000000) scale(0.100000,-0.100000)"
fill="green" stroke="none">
<path d="M2657 10582 l-2467 -2 2 -2458 3 -2457 2460 -3 c2334 -2 2460 -1
2470 15 7 12 10 656 10 2038 0 1111 1 2200 2 2420 2 220 -1 411 -5 425 l-7 25
-2468 -3z"/>
<path d="M5658 10568 c-1 -7 -3 -859 -3 -1893 0 -1034 -1 -2127 -2 -2428 -2
-358 1 -556 8 -568 9 -19 61 -19 2468 -19 2233 0 2459 1 2465 16 3 9 6 1116 6
2460 l0 2444 -2470 0 c-1968 0 -2470 -3 -2472 -12z"/>
<path d="M197 5153 c-4 -3 -7 -1110 -7 -2460 l0 -2453 2469 0 c2343 0 2470 1
2475 18 9 31 4 4855 -5 4879 l-9 23 -2458 0 c-1352 0 -2462 -3 -2465 -7z"/>
<path d="M5656 5128 c-14 -28 -16 -158 -16 -1219 0 -781 3 -1190 10 -1194 6
-3 10 -15 10 -26 0 -10 -4 -19 -10 -19 -16 0 -14 -2368 3 -2403 l12 -27 2468
0 2467 0 -2 2458 -3 2457 -2462 3 -2462 2 -15 -32z m1592 -1142 c2 -222 -1
-302 -10 -313 -10 -12 -42 -14 -179 -12 -133 3 -170 1 -183 -11 -17 -13 -17
-93 -15 -1275 1 -694 -1 -1267 -5 -1273 -11 -18 -422 -17 -433 1 -4 6 -6 580
-4 1273 l3 1262 -21 14 c-18 12 -48 14 -160 10 -76 -2 -151 -2 -165 2 l-26 6
0 310 0 310 598 -2 597 -3 3 -299z m634 287 c0 -10 0 -277 -2 -594 -1 -316 1
-585 4 -597 7 -21 12 -22 171 -22 146 0 164 2 170 18 3 9 5 280 4 602 -2 323
1 591 5 598 5 9 67 12 227 12 l219 0 -2 -1597 -3 -1598 -215 -3 c-195 -2 -216
-1 -228 15 -10 14 -11 143 -6 643 4 344 4 638 0 653 l-6 27 -160 0 c-152 0
-160 -1 -171 -21 -8 -15 -10 -198 -8 -660 2 -434 0 -642 -7 -649 -7 -7 -86 -9
-225 -8 l-214 3 -3 1585 c-1 872 0 1591 3 1598 3 9 58 12 225 12 202 0 220 -1
222 -17z m1810 3 c78 -17 167 -58 217 -101 54 -46 101 -99 101 -112 0 -7 4
-13 9 -13 14 0 70 -143 96 -244 38 -149 51 -305 37 -440 -20 -185 -97 -444
-138 -460 -8 -3 -14 -11 -14 -19 0 -7 -16 -28 -35 -47 -19 -19 -35 -42 -35
-51 0 -10 24 -44 53 -76 155 -169 197 -313 197 -674 0 -258 -12 -358 -64 -524
-1 -5 -7 -23 -11 -40 -10 -38 -59 -130 -93 -175 -38 -50 -98 -110 -110 -110
-5 0 -13 -7 -16 -16 -3 -8 -10 -12 -16 -9 -5 3 -10 2 -10 -2 0 -12 -106 -52
-169 -63 -29 -6 -210 -10 -402 -10 -334 0 -349 1 -359 19 -14 27 -14 3135 0
3162 10 18 25 19 353 19 256 0 359 -4 409 -14z"/>
<path d="M9393 3724 c-18 -8 -19 -664 -1 -682 28 -28 171 -5 219 35 67 57 95
180 87 378 -7 151 -38 219 -113 251 -39 16 -170 28 -192 18z"/>
<path d="M9393 2454 c-19 -9 -19 -763 1 -789 11 -16 22 -17 94 -11 198 16 237
81 237 396 0 255 -25 334 -120 379 -46 21 -185 38 -212 25z"/>
</g>
</svg>