<?xml version="1.0" standalone="no"?>
<!DOCTYPE svg PUBLIC "-//W3C//DTD SVG 20010904//EN"
 "http://www.w3.org/TR/2001/REC-SVG-20010904/DTD/svg10.dtd">
<svg version="1.0" xmlns="http://www.w3.org/2000/svg"
 width="340.000000pt" height="350.000000pt" viewBox="0 0 340.000000 350.000000"
 preserveAspectRatio="xMidYMid meet">
<metadata>
Created by potrace 1.15, written by Peter Selinger 2001-2017
</metadata>
<g transform="translate(0.000000,350.000000) scale(0.100000,-0.100000)"
fill="#000000" stroke="none">
<path d="M915 1732 c-75 -26 -147 -79 -143 -105 4 -32 40 -32 88 -1 22 15 64
35 92 44 60 19 79 40 59 64 -17 20 -33 20 -96 -2z"/>
<path d="M1702 1714 c3 -22 11 -29 58 -43 30 -10 74 -30 97 -45 46 -31 77 -31
81 0 4 25 -17 44 -92 83 -39 21 -72 31 -103 31 -42 0 -44 -1 -41 -26z"/>
<path d="M929 1219 c-65 -69 -21 -179 71 -179 52 0 76 13 95 50 24 46 19 85
-16 125 -27 30 -37 35 -76 35 -37 0 -50 -5 -74 -31z"/>
<path d="M1735 1239 c-54 -31 -71 -99 -40 -159 21 -41 78 -57 128 -37 69 30
87 125 33 176 -28 26 -92 37 -121 20z"/>
<path d="M1356 978 c-16 -60 -23 -73 -43 -76 -15 -2 -23 5 -31 27 -13 36 -45
42 -62 11 -8 -14 -7 -29 4 -55 18 -42 56 -60 106 -50 45 8 47 8 97 -6 37 -11
47 -11 78 4 42 20 71 72 61 112 -5 21 -12 26 -34 23 -21 -2 -28 -9 -32 -32 -9
-54 -70 -61 -78 -10 -9 57 -13 64 -38 64 -13 0 -26 -6 -28 -12z"/>
</g>
</svg>
